ik_full
version=1
nRows=8
nColumns=40
inDegrees=no
endheader
time	pelvis_tilt	pelvis_list	pelvis_rotation	pelvis_tx	pelvis_ty	pelvis_tz	hip_flexion_r	hip_adduction_r	hip_rotation_r	knee_angle_r	ankle_angle_r	subtalar_angle_r	mtp_angle_r	hip_flexion_l	hip_adduction_l	hip_rotation_l	knee_angle_l	ankle_angle_l	subtalar_angle_l	mtp_angle_l	lumbar_extension	lumbar_bending	lumbar_rotation	arm_flex_r	arm_add_r	arm_rot_r	elbow_flex_r	pro_sup_r	wrist_flex_r	wrist_dev_r	arm_flex_l	arm_add_l	arm_rot_l	elbow_flex_l	pro_sup_l	wrist_flex_l	wrist_dev_l	knee_angle_r_beta	knee_angle_l_beta
0.00000000	0.03374683	0.03228861	-0.03518172	-0.13798945	0.87720925	-0.28395833	0.41027091	-0.00892679	-0.15667218	0.08883473	0.12542657	0.01861229	-0.00040485	-0.34723909	0.09740427	-0.10720523	0.11976471	0.32563970	0.02034670	-0.00088755	-0.16774406	0.00315627	-0.28483167	-0.15528210	-0.24103187	0.04057718	0.30473290	1.35641256	-0.00009351	0.00046255	0.04903194	-0.31037829	-0.31587783	1.03989749	1.48137470	-0.00013359	0.00030875	0.08883473	0.11976471
0.00992424	0.03877253	0.02089767	-0.03289381	-0.12151541	0.88343056	-0.28325518	0.39835697	0.00373639	-0.16474289	0.09601417	0.11172002	0.01861229	-0.00040485	-0.36734177	0.08436356	-0.10226044	0.11919423	0.31944076	0.02034670	-0.00088755	-0.17095932	0.01688750	-0.28280069	-0.15705788	-0.24382306	0.03739859	0.30191820	1.35581683	-0.00009351	0.00046255	0.04676156	-0.30701537	-0.31308682	1.04716043	1.48137700	-0.00013359	0.00030875	0.09601417	0.11919423
0.01984848	0.04189235	0.00741209	-0.03022465	-0.10465857	0.88865991	-0.28250038	0.39021100	0.01844706	-0.17790923	0.11286848	0.09387048	0.01861229	-0.00040485	-0.38626708	0.06797362	-0.10240890	0.12640057	0.31300723	0.02034670	-0.00088755	-0.17099414	0.03323798	-0.28096471	-0.15901400	-0.24727873	0.03426182	0.29780136	1.35521115	-0.00009351	0.00046255	0.04160184	-0.30259138	-0.31052058	1.05699437	1.48137929	-0.00013359	0.00030875	0.11286848	0.12640057
0.02977273	0.04310192	-0.00586551	-0.02759289	-0.08814712	0.89303426	-0.28167182	0.38698307	0.03234093	-0.19352850	0.13363830	0.07423109	0.01861229	-0.00040485	-0.39733323	0.05067963	-0.11092257	0.14237157	0.30830401	0.02034670	-0.00088755	-0.16881249	0.04917966	-0.27981994	-0.16021943	-0.25038590	0.03211941	0.29415099	1.35476090	-0.00009351	0.00046255	0.03497169	-0.29794414	-0.30892686	1.06542779	1.48138158	-0.00013359	0.00030875	0.13363830	0.14237157
0.03969697	0.04522173	-0.02141669	-0.02456691	-0.07176159	0.89689197	-0.28077873	0.38190941	0.04837402	-0.20892965	0.15255624	0.04927543	0.01861229	-0.00040485	-0.40572917	0.02983551	-0.12474183	0.16428423	0.30278797	0.02034670	-0.00088755	-0.16750625	0.06745696	-0.27845297	-0.16072793	-0.25331390	0.02986979	0.29143085	1.35419643	-0.00009351	0.00046255	0.02787524	-0.29247625	-0.30726791	1.07168739	1.48138388	-0.00013359	0.00030875	0.15255624	0.16428423
0.04962121	0.04821465	-0.03930405	-0.02139197	-0.05538612	0.90030311	-0.27978382	0.37401949	0.06701482	-0.22181579	0.16910246	0.01975232	0.01861229	-0.00040485	-0.41236071	0.00526896	-0.14199809	0.19200708	0.29434055	0.02034670	-0.00088755	-0.16692319	0.08811298	-0.27629152	-0.16055939	-0.25599430	0.02688970	0.28965088	1.35331010	-0.00009351	0.00046255	0.02023121	-0.28601343	-0.30518779	1.07562394	1.48138617	-0.00013359	0.00030875	0.16910246	0.19200708
0.05954545	0.05178101	-0.05873690	-0.01841760	-0.03914848	0.90331540	-0.27866913	0.36457183	0.08742572	-0.23192600	0.18479162	-0.00955336	0.01861229	-0.00040485	-0.41591495	-0.02229444	-0.16207260	0.22634785	0.28189953	0.02034670	-0.00088755	-0.16692884	0.11020311	-0.27303232	-0.15959534	-0.25822522	0.02292492	0.28914869	1.35201785	-0.00009351	0.00046255	0.01224348	-0.27868478	-0.30274483	1.07672450	1.48138847	-0.00013359	0.00030875	0.18479162	0.22634785
0.06946970	0.05642845	-0.07931143	-0.01573620	-0.02311688	0.90603105	-0.27745161	0.35358994	0.10905377	-0.23968638	0.20126650	-0.03385427	0.01861229	-0.00040485	-0.41682178	-0.05240337	-0.18295146	0.26725091	0.26433592	0.02034670	-0.00088755	-0.16830084	0.13328361	-0.26850112	-0.15769308	-0.25996869	0.01800337	0.28999862	1.35036701	-0.00009351	0.00046255	0.00420772	-0.27051850	-0.30005856	1.07504637	1.48139076	-0.00013359	0.00030875	0.20126650	0.26725091
